<?xml version="1.0" standalone="no"?>
<!DOCTYPE svg PUBLIC "-//W3C//DTD SVG 20010904//EN"
 "http://www.w3.org/TR/2001/REC-SVG-20010904/DTD/svg10.dtd">
<svg version="1.0" xmlns="http://www.w3.org/2000/svg"
 width="67.000000pt" height="74.000000pt" viewBox="0 0 67.000000 74.000000"
 preserveAspectRatio="xMidYMid meet">

<g transform="translate(0.000000,74.000000) scale(0.100000,-0.100000)"
fill="#000000" stroke="none">
<path d="M261 709 c-45 -9 -86 -31 -109 -58 -21 -26 -50 -96 -61 -148 -6 -26
-18 -77 -27 -113 -48 -191 -50 -207 -29 -230 18 -20 26 -20 303 -18 l285 3 19
26 c16 21 17 30 8 53 -5 15 -17 56 -24 90 -8 33 -21 88 -30 121 -8 33 -20 83
-27 110 -20 86 -79 151 -144 159 -89 11 -122 12 -164 5z"/>
<path d="M232 72 c-20 -6 -14 -31 13 -48 18 -12 47 -17 97 -16 62 0 74 3 96
26 14 14 24 27 21 29 -6 6 -212 14 -227 9z"/>
</g>
</svg>
