<?xml version="1.0" standalone="no"?>
<!DOCTYPE svg PUBLIC "-//W3C//DTD SVG 20010904//EN"
 "http://www.w3.org/TR/2001/REC-SVG-20010904/DTD/svg10.dtd">
<svg version="1.0" xmlns="http://www.w3.org/2000/svg"
 width="105.000000pt" height="130.000000pt" viewBox="0 0 105.000000 130.000000"
 preserveAspectRatio="xMidYMid meet">

<g transform="translate(0.000000,130.000000) scale(0.100000,-0.100000)"
fill="#000000" stroke="none">
<path d="M0 963 c1 -311 2 -332 24 -413 55 -205 185 -371 381 -487 100 -60
124 -63 193 -30 168 81 313 225 387 382 61 131 59 110 63 508 l3 367 -525 0
-526 0 0 -327z m547 220 c7 -10 25 -40 40 -68 l26 -50 -2 -210 c-2 -116 -4
-235 -5 -265 l-1 -55 64 -3 c35 -2 68 1 73 6 6 6 4 51 -3 115 -19 162 7 295
73 378 17 21 54 40 62 32 8 -8 8 -646 0 -667 -5 -13 -26 -16 -130 -16 l-124 0
-35 -69 c-19 -38 -40 -73 -46 -76 -16 -10 -33 11 -69 82 l-30 62 -128 3 -127
3 -3 343 c-3 377 -3 375 57 307 72 -82 86 -144 78 -346 l-7 -160 68 3 67 3 0
265 c1 283 3 296 57 373 23 32 26 33 45 10z"/>
</g>
</svg>
