<?xml version="1.0" standalone="no"?>
<!DOCTYPE svg PUBLIC "-//W3C//DTD SVG 20010904//EN"
 "http://www.w3.org/TR/2001/REC-SVG-20010904/DTD/svg10.dtd">
<svg version="1.0" xmlns="http://www.w3.org/2000/svg"
 width="89.000000pt" height="87.000000pt" viewBox="0 0 89.000000 87.000000"
 preserveAspectRatio="xMidYMid meet">

<g transform="translate(0.000000,87.000000) scale(0.100000,-0.100000)"
fill="#000000" stroke="none">
<path d="M420 560 l0 -80 -81 0 -80 0 3 -47 3 -48 65 -1 c36 -1 71 -2 78 -3 8
-1 12 -23 12 -76 l0 -75 45 0 45 0 0 75 c0 86 3 88 100 83 l55 -3 3 48 3 47
-80 0 -81 0 0 80 0 80 -45 0 -45 0 0 -80z"/>
</g>
</svg>
