<?xml version="1.0" standalone="no"?>
<!DOCTYPE svg PUBLIC "-//W3C//DTD SVG 20010904//EN"
 "http://www.w3.org/TR/2001/REC-SVG-20010904/DTD/svg10.dtd">
<svg version="1.0" xmlns="http://www.w3.org/2000/svg"
 width="69.000000pt" height="82.000000pt" viewBox="0 0 69.000000 82.000000"
 preserveAspectRatio="xMidYMid meet">

<g transform="translate(0.000000,82.000000) scale(0.100000,-0.100000)"
fill="#000000" stroke="none">
<path d="M12 798 c-9 -17 -12 -124 -10 -408 l3 -385 343 -3 342 -2 -2 407 -3
408 -331 3 -330 2 -12 -22z m616 -46 c9 -7 12 -85 10 -358 l-3 -349 -280 0
-280 0 -3 345 c-1 190 0 351 3 357 3 10 66 13 272 13 147 0 274 -4 281 -8z"/>
<path d="M257 503 c-48 -48 -87 -94 -87 -103 0 -16 170 -190 185 -190 15 0
185 174 185 189 0 18 -168 191 -185 191 -6 0 -51 -39 -98 -87z"/>
</g>
</svg>
