<?xml version="1.0" standalone="no"?>
<!DOCTYPE svg PUBLIC "-//W3C//DTD SVG 20010904//EN"
 "http://www.w3.org/TR/2001/REC-SVG-20010904/DTD/svg10.dtd">
<svg version="1.0" xmlns="http://www.w3.org/2000/svg"
 width="76.000000pt" height="84.000000pt" viewBox="0 0 76.000000 84.000000"
 preserveAspectRatio="xMidYMid meet">

<g transform="translate(0.000000,84.000000) scale(0.100000,-0.100000)"
fill="#000000" stroke="none">
<path d="M37 753 c-4 -3 -7 -24 -7 -45 l0 -38 356 0 355 0 -3 43 -3 42 -346 3
c-190 1 -348 -1 -352 -5z"/>
<path d="M34 496 c-3 -8 -4 -29 -2 -48 l3 -33 350 0 350 0 0 45 0 45 -348 3
c-292 2 -348 0 -353 -12z"/>
<path d="M37 254 c-4 -4 -7 -25 -7 -46 l0 -38 353 2 352 3 0 40 0 40 -345 3
c-190 2 -348 0 -353 -4z"/>
</g>
</svg>
