<?xml version="1.0" standalone="no"?>
<!DOCTYPE svg PUBLIC "-//W3C//DTD SVG 20010904//EN"
 "http://www.w3.org/TR/2001/REC-SVG-20010904/DTD/svg10.dtd">
<svg version="1.0" xmlns="http://www.w3.org/2000/svg"
 width="76.000000pt" height="84.000000pt" viewBox="0 0 76.000000 84.000000"
 preserveAspectRatio="xMidYMid meet">

<g transform="translate(0.000000,84.000000) scale(0.100000,-0.100000)"
fill="#000000" stroke="none">
<path d="M22 824 c-21 -15 -22 -21 -22 -178 0 -208 -10 -196 172 -196 183 0
178 -5 178 194 0 143 -1 148 -25 171 -23 24 -30 25 -152 25 -100 0 -133 -3
-151 -16z m246 -62 c9 -6 12 -38 10 -123 l-3 -114 -99 -3 c-73 -2 -102 1 -108
10 -11 18 -8 210 4 226 12 14 175 17 196 4z"/>
<path d="M446 819 l-26 -20 0 -153 c0 -204 -7 -196 178 -196 94 0 142 4 150
12 8 8 12 64 12 185 l0 173 -26 10 c-14 6 -78 10 -143 10 -105 0 -121 -2 -145
-21z m258 -65 c9 -23 7 -207 -2 -222 -6 -9 -35 -12 -108 -10 l-99 3 -3 109
c-1 61 0 116 2 123 4 9 32 13 105 13 81 0 100 -3 105 -16z"/>
<path d="M27 364 l-27 -15 2 -172 3 -172 160 -3 c142 -2 161 -1 172 15 17 22
18 281 2 316 -6 14 -22 30 -36 36 -37 17 -242 13 -276 -5z m241 -66 c8 -8 12
-50 12 -124 0 -93 -3 -113 -16 -118 -29 -11 -179 -7 -192 6 -15 15 -16 201 -2
229 9 17 22 19 98 19 55 0 92 -4 100 -12z"/>
<path d="M465 368 c-42 -22 -45 -36 -45 -194 0 -117 3 -154 14 -163 9 -8 63
-11 167 -9 l154 3 3 170 c3 214 10 205 -157 205 -64 0 -125 -5 -136 -12z m232
-70 c19 -16 18 -221 -1 -237 -9 -8 -47 -11 -107 -9 l-94 3 -3 105 c-4 153 -10
145 100 147 54 1 98 -3 105 -9z"/>
</g>
</svg>
