<?xml version="1.0" standalone="no"?>
<!DOCTYPE svg PUBLIC "-//W3C//DTD SVG 20010904//EN"
 "http://www.w3.org/TR/2001/REC-SVG-20010904/DTD/svg10.dtd">
<svg version="1.0" xmlns="http://www.w3.org/2000/svg"
 width="82.000000pt" height="93.000000pt" viewBox="0 0 82.000000 93.000000"
 preserveAspectRatio="xMidYMid meet">

<g transform="translate(0.000000,93.000000) scale(0.100000,-0.100000)"
fill="#000000" stroke="none">
<path d="M0 465 l0 -465 410 0 410 0 0 449 c0 247 -3 456 -6 465 -5 14 -51 16
-410 16 l-404 0 0 -465z m726 -33 c17 -11 24 -68 11 -86 -11 -15 -46 -16 -347
-14 l-335 3 -3 47 c-2 38 0 47 15 51 30 8 647 7 659 -1z m12 -229 c14 -19 16
-52 3 -71 -6 -11 -76 -13 -337 -13 -181 0 -335 1 -341 1 -19 0 -17 87 1 97 8
4 160 7 338 6 291 -3 324 -5 336 -20z"/>
</g>
</svg>
